# xmcd
#
# Track frame offsets:
# 150
# 14785
# 41730
#
# Disc length: 763 seconds
#
# Revision: 1
# Processed by: cddbd v1.5.2PL0 Copyright (c) Steve Scherf et al.
# Submitted via: CedeCatalogueitor 2.6.0.6 http://personales.ya.com/cdcatalogueitor
#
DISCID=2302f903
DTITLE=Grinderman - Wor Tamer
DYEAR=1900
DGENRE=
TTITLE0=Worm Tamer
TTITLE1=Hyper Worm Tamer
TTITLE2=Worm Tamer
EXTD=
EXTT0=
EXTT1=
EXTT2=
PLAYORDER=
